<?xml version="1.0" encoding="utf-8"?>
<!-- Generator: Adobe Illustrator 17.1.0, SVG Export Plug-In . SVG Version: 6.00 Build 0)  -->
<!DOCTYPE svg PUBLIC "-//W3C//DTD SVG 1.1//EN" "http://www.w3.org/Graphics/SVG/1.1/DTD/svg11.dtd">
<svg version="1.1" xmlns="http://www.w3.org/2000/svg" xmlns:xlink="http://www.w3.org/1999/xlink" x="0px" y="0px"
	 viewBox="0 0 372 361.9" enable-background="new 0 0 372 361.9" xml:space="preserve">
<g id="Layer_16">
	<path fill="#EDECE4" d="M274.9,27.1C205-7.9,155.4-2.2,97.5,22.9C39.3,48.1,7.8,101.5,3.8,147.2C-3.4,227.6,19.4,298.9,89.5,337
		c112.6,61.2,216.4-17.8,240.8-54c41.9-62.3,44.1-106.9,34.1-149.7S317.4,51.4,274.9,27.1"/>
	<g opacity="0.4">
		<path fill="#BCBBBB" d="M167.6,81c-1-4.6-3.9-8.8-9.2-11c-5-2.1-9.8-1.3-13.4,1.2c-10.3-8.2-24.1-12.9-36.8-14.5
			C99.8,55,91.5,56,84.1,59c-4.9,1.8-9.5,4.4-13.4,8.1c-1.2,1.2-2.3,2.4-3.3,3.8c-5,5.7-8.7,12.7-10.4,20.6
			c-2.7,12.6-0.4,27.1,7.4,37.5c3.6,4.9,8.5,8.1,13.9,10.4c-1.8,2.3-3.1,4.9-3.9,7.7c-6.9,5.8-8.3,16.1-3.1,23.7
			c6.6,9.8,18.8,10.5,29.3,7.9c5-1.2,9.7-3.5,13.1-6.9c0.8-0.5,1.5-1.1,2.1-1.8c2.9-3.2,3.9-6.6,3.5-9.8c0.1-1,0.1-2,0.1-3
			c-0.3-5.5-3-10.1-7-13.4c21.7-2.1,44.5-14.3,47.7-36.7c1-0.4,1.9-0.9,2.7-1.4c6-3.5,10.2-11.7,8.3-18.6
			C170.3,84.8,169.1,82.7,167.6,81z"/>
		<path fill="#BCBBBB" d="M202.1,113.1c4.9-1.4,8.2-5.2,9.4-9.7c0.7-1.2,1.3-2.5,1.6-3.9c2.2-9.8-8.3-17.2-16.7-18.2
			c-4.5-0.5-9.4,1.9-12.3,5.2c-3.4,3.7-4,8.5-3.3,13.2c0,2.1,0.4,4.2,1.4,6.1c1.7,3.3,5.4,6.2,9.2,6.3
			C194.9,113.5,198.8,114,202.1,113.1z"/>
		<path fill="#BCBBBB" d="M129.2,210.7c5.8-2.3,9.8-6.6,10-13c0.2-5.9-5.4-10.5-10.9-10.8c-1.6-0.1-3.1,0.1-4.5,0.5
			c-1.1-0.7-2.5-1-3.9-0.5c-8.7,3-17,19.1-6.1,24.7C118.3,213.9,124.7,212.5,129.2,210.7z"/>
		<path fill="#BCBBBB" d="M79.2,238.8c-3.3-3.3-7.6-3.8-12-3.2c-9.4,1.3-17.6,9.1-16.8,19c0.2,3,1.9,5.7,5,6.6
			c1.3,0.3,2.6,0.6,3.9,0.8c0.4,0.2,0.7,0.3,1.1,0.5c2.1,0.8,3.9,0.4,5.4-0.5c3.2-0.4,6.4-1.5,9.2-3.2c3.9-2.3,5.6-6,5.3-9.5
			C82.1,245.8,81.9,241.6,79.2,238.8z"/>
		<path fill="#BCBBBB" d="M151.6,225.2c-0.5-0.7-1-1.4-1.6-2c2.3-2.9,1.6-7.8-2.9-9.2c-9.9-3.2-19.3,7.7-22.3,15.9
			c-0.7,2-1.2,4-1.1,5.9c-3.5,0.2-7,1.3-10.1,2.7c-6.4,2.8-11.6,8.9-13.2,15.6c-2.1,2.9-3.5,6.3-3.9,9.7c-0.4,2.8,1.7,6.6,4.1,8
			c2.2,1.3,5.2,1.2,7.9,0.8c8.5,4.1,21,1.3,27-5.3c4-4.4,7.6-12.9,7.2-20.1c1.9-0.3,3.7-0.9,5.5-1.8c6.4-3.3,10.8-11.2,6.1-17.8
			C153.4,226.6,152.5,225.8,151.6,225.2z"/>
		<path fill="#BCBBBB" d="M221.3,221.4c3.4-1.2,6.7-3,9.4-5c10.3-7.2,13.2-23-0.7-28c-5.3-1.9-11-0.4-16.2,2.6
			c-5.9,2.2-11.2,7-13.5,12.2c-0.4,0.6-0.8,1.1-1.2,1.7c-3.6,5.4-3.7,11.1,0.5,16c4.6,5.4,13.5,3.2,19.2,1.4
			C219.6,222.1,220.5,221.8,221.3,221.4z"/>
		<path fill="#BCBBBB" d="M199.9,49.3c5.7-3.1,9.2-9,7.6-15c0.1-1.8-0.1-3.7-1-5.6c-3.2-7.6-12.2-9-20.1-6.8
			c-0.7,0.1-1.4,0.2-2.1,0.3c-5.8,1.1-13.1,5.5-14.9,11.5c-2.2,7.5,2.7,12.6,9.7,14.2C185.2,51.6,193.8,52.7,199.9,49.3z"/>
		<path fill="#BCBBBB" d="M265.5,101.9c5.2,2.7,12.7,3.2,18.1,0.4c4.8-1,9.3-3.3,11.7-6.7c2.6-1.4,4.6-3.4,5.1-6.2
			c2.6-14.8-15.3-19.6-26.1-14c-1.5,0.8-2.8,1.6-4.1,2.6c-3.2,1.6-6,4-8.3,7c-1.9,2.5-2.4,5.9-2.6,9
			C259.1,97.9,262.5,100.3,265.5,101.9z"/>
		<path fill="#BCBBBB" d="M263.1,201.2c0.1,0.1,0.1,0.1,0.2,0.2c2.7,3.3,6.9,4.7,11.2,5.5c9.7,2.6,21.2,1.5,30.2-1.7
			c12.9-3.7,22.7-12,20.5-26.5c-2.2-14-17.2-19.9-29.5-21.1c-11.9-1.2-25.1,3-33.1,11.9C253.8,179.1,253.5,192.9,263.1,201.2z"/>
		<path fill="#BCBBBB" d="M255.3,251.1c-1.6,0-3.3,0.1-4.9,0.3c-0.6-0.3-1.3-0.6-2-0.8c0.2-0.3,0.3-0.6,0.4-1
			c0.6-1.6,0.8-3.1,0.8-4.6c1.4-3.9,0.4-8.2-2.5-11.8c-1.6-4.6-6.3-6.8-11.6-7.2c-6.5-1-14.2,1.3-18.5,6c-8.2,7.9-6,21.1,4.3,24.3
			c-0.3,3.9,0.8,7.8,3.8,11.2c2.5,2.8,6.4,4.5,10.4,4.9c0.1,0.1,0.2,0.2,0.2,0.3c0.5,0.6,1,1.1,1.5,1.5c0.6,0.8,1.2,1.6,2,2.3
			c2.1,2,4.7,3,7.4,3.5c1.8,0.8,3.9,1,5.5,0.5c0.1,0,0.2-0.1,0.4-0.1c0,0,0.1,0,0.1,0c1.6-0.1,3.1-0.3,4.6-0.5
			c4.5-0.8,8.9-5.2,10-10C270,261.7,266,251.2,255.3,251.1z"/>
		<path fill="#BCBBBB" d="M302,274.5c-4,1.4-7.3,3.7-10,6.9c-2.4,1.2-4.8,2.7-6.9,4.4c-5.6,4.5-6.9,13.6-1.6,18.8
			c5,5,12.7,4.1,18.9,2.5c6.6-1.7,14.2-5.3,18.2-11c3.6-5,4-11.6,0.8-17C317.4,272.5,308.6,272.3,302,274.5z"/>
		<path fill="#BCBBBB" d="M327.9,240.2c-4-2.6-8.8-2.2-13-0.2c-3,0.7-5.9,2.2-8.2,4.2c-3.8,3.3-5.2,7.9-3.1,12.6
			c0.7,1.6,2,2.9,3.6,4c0.2,0.2,0.3,0.4,0.5,0.5c3.4,3.2,8,3,12.2,2.2c4-0.7,7.9-2.5,11-5.1c1.5-1.3,2.4-2.9,2.8-4.5
			c0.4-1,0.7-2.1,0.8-3.3C334.7,246.1,331.3,242.3,327.9,240.2z"/>
		<path fill="#BCBBBB" d="M37.3,90.7c-7.9-4.6-17.5-0.7-21.5,6.9c-3.1,3.8-4,9.3,0,13.3c4.3,4.4,10.3,4,15.2,1.2
			c4.2-1,8.5-4.1,10.4-7.9C43.9,99.4,41.9,93.3,37.3,90.7z"/>
	</g>
</g>
<g id="Layer_4">
	<g opacity="0.4">
		<path fill="#FFFFFF" d="M364.3,133.3c-10-42.7-46.9-82-89.4-106.3C227.4,3.3,189.2-1.7,151.5,5.5c15.7,7.5,29.7,19.7,41.4,31.6
			c20.2,20.6,38.2,45.1,48.6,72.2c4.1,10.7,6.2,21.9,8,33.1c2.3,14.8,4,29.7,4.3,44.6c0.5,29.5-3.7,59.5-16.4,86.4
			c-12.4,26.1-29.1,51.4-49.3,72.2c-4.6,4.8-9.4,9.4-14.3,13.9c76.7,0.7,138.5-49.7,156.5-76.5C372.2,220.7,374.3,176,364.3,133.3z"
			/>
	</g>
</g>
<g id="Layer_15">
	<g>
		<path fill="#DEDDDD" d="M130,191.4c-1,1.7-2,3.5-3.1,5.2c0.9,0.2,1.8,0.5,2.8,0.7c0.1-1.3,0.2-2.7,0.3-4c0.1-1.7-2.1-2-2.9-0.8
			c-1.2,1.8-2,3.5-2.6,5.6c-0.5,1.8,2.3,3.1,3.1,1.3c1.1-2.5,2.3-4.9,3.4-7.4c0.5-1.2-0.1-2.7-1.5-2.7c-0.1,0-0.2,0-0.3,0
			c-0.7,0-1.6,0.5-1.7,1.3c-0.2,1.1-0.1,1.7,0.7,2.5c0.4,0.5,1.2,0.6,1.8,0.5c3.2-0.8,4.8,5.8,5.9,8.2c2.3,4.8,4.5,9.7,6.8,14.5
			c0.4-0.9,0.8-1.9,1.1-2.8c-0.1,0-0.2,0-0.3,0c0.8,0.4,1.6,0.9,2.4,1.3c-0.2-1.3-0.2-2.1-1.1-3.2c-0.6-0.7-1.6-0.6-2.3-0.3
			c-3.7,1.7-1.6,9.7-1.5,12.8c1.3-0.2,2.6-0.4,3.9-0.5c-2-5.3-3.1-10.7-3.3-16.4c-0.1-2.6-4.1-2.7-4.1,0c0,6.9,0.9,13.6,2.9,20.2
			c1.3-0.4,2.7-0.7,4-1.1c-1.4-3.4-1.9-6.7-1.4-10.4c-1.4,0.2-2.8,0.4-4.1,0.6c1.9,13.9,2.4,27.8,1.8,41.8c1.5,0,3,0,4.5,0
			c-0.3-3.9-0.7-7.8-1-11.7c-0.2-2.6-3.6-3.1-4.5-0.6c-1.8,5.2-2.6,10.4-2.4,15.8c1.5-0.2,3-0.4,4.5-0.6c-0.4-2.3-0.9-4.7-1.3-7
			c-0.5-2.8-4.3-1.8-4.5,0.6c-2.3,20.7,28.5,28.9,43.7,23.1c2.4-0.9,2.1-4.5-0.6-4.6c-14.1-0.4-27-6.5-36.5-16.9
			c-1.8-2-5.2,0.6-3.7,2.9c3.8,5.9,9.2,10,15.9,11.9c2.6,0.8,4.2-3,1.8-4.3c-3.9-2.2-7.8-4.5-11.7-6.7c-1.3-0.7-3.2-0.1-3.5,1.4
			c-2.6,13.3,22.6,14.4,30.7,15.2c0-1.6,0-3.2,0-4.8c-2.2,0.3-4.3,0.5-6.5,0.8c-3,0.4-3.2,4.7,0,4.9c5.1,0.2,9.9-0.6,14.7-2.5
			c-0.9-1.2-1.8-2.4-2.7-3.6c-1,1.5-2.2,2.6-3.8,3.5c-2.3,1.5-0.8,5.1,1.9,4.4c5.1-1.3,10.1-2.9,15.1-4.9c-0.8-1.4-1.6-2.7-2.4-4.1
			c-1.3,1.2-2.7,2.5-4,3.7c-1.4,1.3-0.4,4.4,1.7,4.1c5.6-0.8,10.8-2.4,15.7-5.2c2.4-1.4,0.8-5.2-1.9-4.4c-2,0.6-3.3,1.3-4.6,2.9
			c-2.1,2.3,1.2,5.6,3.4,3.4c6.2-6,11.2-12.9,14.9-20.8c1.3-2.8-2.8-5.3-4.2-2.5c-1.6,3.3-3.2,6.5-4.8,9.8c-1.4,2.8,2.5,5.1,4.2,2.5
			c3.1-4.7,3.8-10,2.2-15.4c-0.8-2.8-4.5-2-4.8,0.6c-0.8,7.4-3.4,14.1-7.5,20.3c1.4,0.8,2.8,1.6,4.2,2.5c4.9-8.5,2.4-18.2,1.8-27.4
			c-0.8-12.1,0.5-24.4,3.2-36.2c0.6-2.7-3.1-4.4-4.5-1.9c-4.7,8.3-6.8,17.4-5.8,26.9c0.3,2.7,4,3.4,4.8,0.7
			c2.7-8.8,5.4-17.6,8.2-26.4c-1.6-0.4-3.2-0.9-4.8-1.3c-1.3,9.7-2.6,19.3-3.9,29c-1.1,8.1-3.5,16.9-0.9,24.9c0.6,2,3.6,2.7,4.6,0.6
			c1.3-2.6,1.3-4.6,0.2-7.3c-1.3-3-5.6-0.4-4.4,2.6c-0.1,0.7-0.1,1.4-0.2,2.2c1.5,0.2,3.1,0.4,4.6,0.6c-2.5-7.8,0.1-16.9,1.1-24.8
			c1.2-8.8,2.4-17.6,3.5-26.4c0.4-3.1-3.8-4.5-4.8-1.3c-2.7,8.8-5.4,17.6-8.2,26.4c1.6,0.2,3.2,0.4,4.8,0.7
			c-0.9-8.7,0.7-16.9,5.1-24.4c-1.5-0.6-3-1.3-4.5-1.9c-2.3,9.9-3.5,19.9-3.6,30.1c-0.1,10.1,4.3,23.2-0.9,32.4
			c-1.6,2.8,2.5,5.1,4.2,2.5c4.6-6.9,7.2-14.5,8.1-22.7c-1.6,0.2-3.2,0.4-4.8,0.6c1.3,4.3,0.7,8-1.8,11.6c1.4,0.8,2.8,1.6,4.2,2.5
			c1.6-3.3,3.2-6.5,4.8-9.8c-1.4-0.8-2.8-1.6-4.2-2.5c-3.5,7.5-8.2,14.1-14.1,19.8c1.1,1.1,2.3,2.3,3.4,3.4c0.8-0.5,1.7-1.1,2.5-1.6
			c-0.6-1.5-1.2-3-1.9-4.4c-4.2,2.4-8.5,3.9-13.2,4.5c0.6,1.4,1.1,2.8,1.7,4.1c1.3-1.2,2.7-2.5,4-3.7c1.7-1.6-0.1-5-2.4-4.1
			c-4.9,2-9.9,3.6-15.1,4.9c0.6,1.5,1.2,3,1.9,4.4c2.3-1.4,3.9-3,5.5-5.2c1.2-1.7-0.8-4.3-2.7-3.6c-4.4,1.7-8.7,2.5-13.4,2.3
			c0,1.6,0,3.2,0,4.9c2.2-0.3,4.3-0.5,6.5-0.8c3.1-0.4,3.2-4.5,0-4.8c-3.8-0.4-27.5-2-26.1-9.1c-1.2,0.5-2.3,1-3.5,1.4
			c3.9,2.2,7.8,4.5,11.7,6.7c0.6-1.4,1.2-2.9,1.8-4.3c-5.6-1.6-10-4.9-13.1-9.7c-1.2,1-2.5,1.9-3.7,2.9
			c10.3,11.3,24.6,17.8,39.8,18.2c-0.2-1.5-0.4-3.1-0.6-4.6c-12.5,4.8-39.8-1-37.9-18.6c-1.5,0.2-3,0.4-4.5,0.6
			c0.4,2.3,0.9,4.7,1.3,7c0.5,2.6,4.6,2,4.5-0.6c-0.2-5.1,0.5-9.8,2.2-14.6c-1.5-0.2-3-0.4-4.5-0.6c0.4,3.9,0.7,7.8,1.1,11.7
			c0.3,2.9,4.4,3,4.5,0c0.5-14.4-0.3-28.7-2.3-42.9c-0.4-2.6-3.9-1.6-4.1,0.6c-0.5,4,0,7.7,1.6,11.5c1,2.4,4.8,1.5,4-1.1
			c-1.9-6.2-2.8-12.5-2.8-19.1c-1.4,0-2.7,0-4.1,0c0.2,6.1,1.3,11.8,3.5,17.5c0.8,2,4.1,1.9,3.9-0.5c0-0.9-0.9-9.3-0.6-9.5
			c-0.8-0.1-1.6-0.2-2.3-0.3c0.1,0.1,0.1,1.3,0.1,1.5c0.2,1.1,1.4,1.5,2.4,1.3c0.1,0,0.2,0,0.3-0.1c1.3-0.2,1.6-1.8,1.1-2.8
			c-3.2-6.6-6.3-13.2-9.4-19.9c-1-2.1-1.7-3.7-3.7-4.8c-0.6-0.3-1.2-0.2-1.9-0.2c-2,0.1,0.4,0.7,0.1,2.1c-0.6,0.4-1.2,0.9-1.7,1.3
			c0.1,0,0.2,0,0.3,0c-0.5-0.9-1-1.8-1.5-2.7c-1.1,2.5-2.2,5-3.3,7.5c1,0.4,2.1,0.9,3.1,1.3c0.5-1.7,1.1-3.3,2-4.9
			c-1-0.3-2-0.5-2.9-0.8c0,1.3,0,2.7-0.1,4c0,1.4,2.1,2.1,2.8,0.7c0.9-1.8,1.9-3.6,2.8-5.3C133.1,191.2,130.9,189.9,130,191.4
			L130,191.4z"/>
	</g>
	<g>
		<path fill="#DEDDDD" d="M208.4,260c-2.3,2.8-4.5,5.5-6.8,8.3c-1.1,1.3,0.3,3.6,1.9,2.5c7.3-5,11.1-13.2,10.2-22
			c-0.2-1.9-2.3-3-3.8-1.6c-1.8,1.7-3.6,3.4-5.4,5.1c1.3,0.3,2.5,0.7,3.8,1c-2.3-8.3-1.5-15.7-0.7-24.1c0.2-2.5-3.3-2.6-4.1-0.5
			c-2.9,8.1-1.8,17.7,0.4,25.8c0.5,1.7,2.6,2.2,3.8,1c1.8-1.7,3.5-3.5,5.3-5.2c-1.3-0.5-2.5-1-3.8-1.6c1,7.7-1.8,14.6-7.7,19.5
			c0.8,0.6,1.6,1.3,2.5,1.9c2.1-2.9,4.1-5.8,6.2-8.8C211.1,260.3,209.3,258.9,208.4,260L208.4,260z"/>
	</g>
	<g>
		<path fill="#DEDDDD" d="M216.9,152.4c-0.5,0.2-1,0.5-1.4,0.7c0.3,0.8,0.6,1.5,0.9,2.3c3.8-4.3,7.4-8.8,11.3-13.1
			c-0.9-0.7-1.7-1.3-2.6-2c-1.1,1.5-1.3,3-1,4.8c0.2,1.3,2.2,1.8,3,0.8c1.1-1.4,2-2.8,2.8-4.4c1-2.2-2-4.1-3.3-1.9
			c-1,1.7-2.2,3.1-3.7,4.4c1,0.8,2.1,1.6,3.1,2.4c1-1.7,1.4-3.2,1-5.1c-0.4-1.8-3-1.6-3.5,0c-0.3,1.1-0.5,2.1-1,3.1
			c-1.1,2,1.5,4,3.1,2.4c1.7-1.5,3-3.3,4.2-5.2c-1.2-0.5-2.3-1-3.5-1.5c-0.5,1.4-1.2,2.5-2.1,3.7c1.1,0.1,2.2,0.3,3.3,0.4
			c-0.3-0.8-0.2-1.6,0.4-2.2c1.1-1.9-1.6-3.4-2.9-1.7c-3.5,4.6-7.2,8.9-10.7,13.5c-0.8,1,0.5,2.2,1.5,1.9c1.1-0.3,2-0.8,2.8-1.6
			C219.7,153,218.1,151.4,216.9,152.4L216.9,152.4z"/>
	</g>
	<path fill="#DEDDDD" d="M282,148.1c0-0.1,0-0.1,0.1-0.2c0.4-1.8-1.2-3.6-3.1-3.1c-2.8,0.8-5.4,0.4-7.6-0.9
		c-0.1-1.1-0.9-2.1-1.8-2.8c1.3-3,2.6-6,4.2-8.9c0.4-0.7,0.5-1.8,0-2.5c-0.4-0.5-0.7-1-1.1-1.5c-2.3-3.8-4-7.8-5.4-12
		c-1-3.1-5.6-1.8-4.8,1.3c0,0.2,0.1,0.3,0.1,0.5c-0.9-0.6-2.2-0.7-3.1,0.3c0,0,0,0-0.1,0.1c-1.4-0.6-3.2,0.2-3.5,1.7
		c-0.4-0.3-0.8-0.6-1.3-0.9c0.5-0.2,1.1-0.3,1.6-0.5c1.6-0.5,2-2,1.6-3.2c0.2-0.2,0.5-0.3,0.7-0.5c2.6-1.9,0.4-5.6-2.5-4.3
		c-2,0.9-3.8,2.1-5.3,3.5c-1.2,0.7-2.5,1.4-3.8,2c-2.1,0.6-4.2,1.2-6.3,1.8c-0.4-0.1-0.9-0.1-1.4,0c-3.4,1.1-6.9,1.9-10.3,2.6
		c-0.2-0.9-0.7-1.7-1.7-2.1c-8.7-3.4-17.4-6.8-26.1-10.2c-4.1-2.5-8.4-4.5-12.9-6.1c-0.1-0.3-0.1-0.7-0.2-1c0.5-0.4,0.8-1,0.8-1.7
		c0.2-9.3-2-18.6-7.8-25.8c-0.1-0.3-0.3-0.5-0.5-0.6c-0.8-1-1.7-1.9-2.7-2.8c-0.2-0.2-0.5-0.4-0.8-0.5c-1.4-3.3-2.9-6.6-4.4-9.8
		c-0.8-1.7-3.2-1.4-4.1,0c-2.7,4.4-4.9,9-6.6,13.8c-4.4,7.6-5.7,16.1-3.8,24.8c0,0.2,0.1,0.3,0.1,0.4c-5.2,1.9-10.2,4.4-14.8,7.5
		c0.2-2.5,0.4-5,0.6-7.4c0.2-2.3-3.4-3.3-4.4-1.2c-1.5,3.1-3.1,6.2-4.7,9.3c-0.7,0-1.5,0.3-2,1.1c-4.3,5.9-6.7,12.5-7.6,19.6
		c-10.8-1-21.7-0.9-32.5,0.4c-2,0-4,0-6,0c-0.9,0-1.5,0.4-1.8,1c-1.5-0.5-3.1-0.5-4.8,0.5c-1.2,0.6-1.5,2.5-0.4,3.4
		c5.8,5,7.6,13.2,14.4,16.9c1.3,0.7,2.7,1.3,4.2,1.8c2,1.4,4.2,2.6,6.6,3.6c-0.3,0.8-0.2,1.8,0.4,2.5c3.1,3.2,7.6,4.9,11.9,4.2
		c0,0,0,0,0,0c0.6,0.4,1.3,0.4,1.8,0.2c0,0,0,0,0.1,0.1c0,0.2,0.1,0.5,0.1,0.7c-0.7,0.4-1.3,1-1.3,2c0,0.2,0,0.5,0,0.7
		c-1.4-0.4-3.2,0.5-3,2.2c1.3,11.5,2.9,22.9,8.3,33.3c1,2,4.5,1.1,4.3-1.2c-0.2-2.5-0.3-5-0.5-7.6c0.7,1.7,1.4,3.4,2.1,5.1
		c0.5,1.3,2.2,2,3.4,1.5c1.4,2.3,2.8,4.6,4.2,6.9c0.7,1.3,1.5,2.6,2.3,3.8c0.6,0.9,1.5,1.2,2.4,1.1c0.4,1.6,1,3.2,1.6,4.7
		c-1.2,0.1-2.4,0.9-2.3,2.2c0.3,10.7,1.6,21.2,3.9,31.6c0.1,0.8,0.2,1.6,0.3,2.4c-2-0.3-3.2,2.1-2.5,3.8c0,0,0,0,0,0.1
		c-1,0.5-1.9,1.3-2.6,2.5c-3.6,6.5,5.6,11,9.7,6.5c3.8,3.1,8.2,5.2,12.9,6.4c0,0,0,0,0,0c0.8,1.3,2,2.4,3.5,3.2
		c0.2,0.1,0.5,0.2,0.7,0.3c-1.8,1-2,4.2,0.5,4.8c7.3,1.7,14.4,0.6,20.7-3.4c0.1-0.1,0.2-0.1,0.3-0.2c0.4,0,0.9-0.1,1.4-0.5
		c1.3-1,2.7-2,4-3c0.5-0.4,0.8-0.8,1-1.3c0.5,0,1,0,1.5-0.3c5.4-2.4,8.6-7.9,8-13.8c-0.1-1.3-1.3-2.5-2.6-2.7
		c0.1-0.2,0.2-0.4,0.3-0.6c0.4,0,0.9-0.1,1.3-0.3c0.1-0.1,0.3-0.2,0.4-0.2c0.7-0.4,1.4-1.4,1.3-2.2c-0.1-0.7-0.2-1.2-0.4-1.6
		c0-4.6-0.6-9.1-1.9-13.6c-0.2-0.7-0.6-1.1-1-1.4c-0.2-5.5-0.5-11-0.7-16.5c0-0.4-0.1-0.7-0.2-0.9c0.1-0.1,0.2-0.2,0.4-0.3
		c11.3-13.2,27.3-20.5,42.7-27.8c14.6-6.9,26.7-16.2,30.5-32.4c2.5-0.7,4.6-2,6.1-4c0.4-0.2,0.7-0.4,1.1-0.6
		C282.3,150.9,282.5,149.2,282,148.1z M93.5,138.9c0.1,0.2,0.3,0.4,0.4,0.6c-0.2-0.2-0.4-0.4-0.5-0.6c-0.1-0.2-0.2-0.4-0.3-0.6
		c0.1,0,0.2,0,0.2,0C93.4,138.6,93.4,138.8,93.5,138.9z M121.5,182.2C121.5,182.2,121.5,182.2,121.5,182.2
		C121.5,182.2,121.5,182.2,121.5,182.2C121.5,182.2,121.5,182.2,121.5,182.2z M126.8,135.2c-0.2,0.1-0.4,0.2-0.6,0.3
		c-0.1-0.2-0.2-0.4-0.4-0.5c0.3,0,0.7,0,1,0C126.9,135,126.8,135.1,126.8,135.2z M133.2,185.3c0-0.1,0-0.1,0-0.2
		c0.3,1.3,0.8,2.6,1.3,3.9c0.1,0.5,0.2,1,0.3,1.5C134.2,188.8,133.7,187.1,133.2,185.3z M142.8,112.5c0-0.1,0-0.1,0-0.2
		c0,0,0,0,0.1,0c0.2-0.1,0.4-0.3,0.7-0.4C143.3,112.1,143.1,112.3,142.8,112.5z M157.5,153.8c0-0.1,0-0.1,0.1-0.2
		c0,0,0.1-0.1,0.1-0.1C157.6,153.6,157.6,153.7,157.5,153.8z M159.7,113.8c0.2-0.2,0.4-0.4,0.5-0.7c0,0.1,0,0.1,0.1,0.2
		C160.1,113.4,159.9,113.6,159.7,113.8z M167.2,259.1c0,0,0.1-0.1,0.1-0.1c0,0,0,0.1,0,0.1C167.2,259.1,167.2,259.1,167.2,259.1z
		 M170.3,66.2C170.3,66.1,170.3,66.1,170.3,66.2C170.3,66.1,170.3,66.1,170.3,66.2C170.3,66.2,170.3,66.2,170.3,66.2z M170.9,76
		c0-0.2,0.1-0.4,0.1-0.6c0.1,0.2,0.2,0.5,0.4,0.7C171.2,76.1,171.1,76,170.9,76z M173,100.5C173,100.5,173,100.5,173,100.5
		C173,100.5,173,100.5,173,100.5C173,100.5,173,100.5,173,100.5z M172.5,149.3c-0.1,0-0.1,0.1-0.2,0.1c0.5-2.1,0.9-4.1,1.3-6.2
		c0,0,0,0,0,0C173.3,145.2,172.9,147.2,172.5,149.3z M173.2,80.8c0-0.4,0-0.8,0-1.2c0.2,0.4,0.4,0.7,0.6,1.1
		C173.6,80.7,173.4,80.7,173.2,80.8z M177.3,119.3c-0.1,0-0.1,0-0.2,0c0,0,0,0,0,0C177.2,119.2,177.2,119.2,177.3,119.3
		C177.3,119.2,177.3,119.2,177.3,119.3z M183.4,270c0.2-0.1,0.3-0.1,0.5-0.2c0,0.1,0,0.3,0,0.4C183.7,270.1,183.6,270,183.4,270z
		 M185,120.4c-0.1,0-0.2,0-0.3,0c0,0-0.1,0-0.1,0c0-0.1,0-0.2,0-0.3c0,0,0,0,0.1,0c0.1,0,0.2,0.1,0.3,0.1
		C185.1,120.3,185.1,120.3,185,120.4C185.1,120.4,185.1,120.4,185,120.4z M197.1,252c0-0.1,0-0.1,0-0.2c0-0.4-0.2-0.9-0.4-1.2
		c0.1-0.2,0.2-0.5,0.3-0.7c0,0.3,0,0.6,0,0.9c0,0.4,0.1,0.7,0.2,1C197.2,251.8,197.1,251.9,197.1,252z M197.3,173.7
		c0.7-2.3,1.3-4.5,2-6.8c0.1,0.3,0.2,0.6,0.4,0.8C198.9,169.7,198.1,171.7,197.3,173.7z M212.1,118c0-0.1-0.1-0.2-0.1-0.3
		c0.3,0.1,0.6,0.2,0.9,0.3C212.6,118,212.3,118,212.1,118z M225.2,142.4c-0.2-0.3-0.6-0.6-0.9-0.8c0.7-0.5,1.1-1.3,1.1-2.1
		c0.1,0,0.3,0,0.4,0c0.2,0.8,0.3,1.6,0.3,2.5C225.8,142.1,225.5,142.2,225.2,142.4z M228.8,189.9
		C228.8,189.9,228.8,189.8,228.8,189.9C228.8,189.8,228.8,189.8,228.8,189.9C228.8,189.8,228.8,189.9,228.8,189.9z M232.9,180.5
		c0,0,0-0.1,0-0.1C232.9,180.4,232.9,180.4,232.9,180.5C232.9,180.4,232.9,180.5,232.9,180.5z M246,129.8c-0.2-0.2-0.4-0.4-0.6-0.6
		c0.1-0.1,0.2-0.2,0.4-0.2C245.8,129.3,245.9,129.6,246,129.8C246,129.8,246,129.8,246,129.8z"/>
	<path fill="#BCBCBC" d="M275.6,144.8c-2.6,0.6-5.1,1.4-7.6,2.3c-0.6-1.3-0.3-2.8,0.9-4c0.8-0.8,0.9-1.8,0.7-2.5
		c0.6-1.2,1.1-2.4,1.6-3.6c2.7-6.8,0.3-13.1-2.7-19.4c-0.4-0.8-1-1.1-1.6-1.3c-1.2-0.9-3.2-0.8-3.7,1.1c-1.9,6.8-2.5,12.9-8,17.8
		c-4.4,3.9-9.3,7.3-14.1,10.8c-9.3,3.2-18.7,6-28.3,8.6c-2.3,0.6-4.7,1.1-7,1.8c-1.8-0.2-3.7-0.2-5.4,0.3c-1.8,0.6-2.6,2.6-3.3,4.2
		c-0.2,0.5-0.5,1-0.7,1.4c-0.9,1.3-1.5,2.7-2.1,4.2c-0.1,0.1-0.1,0.3-0.2,0.4c-1.3-0.7-3.1-0.2-3.6,1.4c-0.7,2.4-1.5,4.8-2.2,7.2
		c-0.2,0.3-0.4,0.7-0.5,1c-1.1-0.4-2.6-0.2-3.4,0.9c-4.6,6.3-10.9,10.7-18.2,13c0.2-2.3,0.4-4.6,0.7-6.9c0.2-1.8-2.3-3.2-3.8-2.2
		c-3.3,2.3-6.6,4.6-9.9,7c0-2.1,0-4.2-0.1-6.4c0-2.1-2.8-3.4-4.3-1.8c-1.1,1.2-2.3,2.5-3.4,3.7c-1.9,2-0.6,0.6-1.4-1.4
		c-1.6-4.3-1.9-9-1.6-13.5c0.1-1.8-2.3-3.3-3.8-2.2c-1,0.8-1.9,1.6-2.6,2.5c-3.3-6.2-5-12.9-4.9-20.1c0-1.8-2.3-3-3.7-2.3
		c-0.5,0-0.9,0-1.3,0.3c-4.6,2.5-9.6,0.7-14.1-1c-0.2-0.1-0.5-0.1-0.7-0.1c-4-1.5-8.2-2.5-12.6-3.1c-0.8-0.1-1.5,0.1-2,0.6
		c-0.3,0.2-0.5,0.4-0.6,0.7c-0.6,1-0.5,2.2,0.8,2.9c0.9,0.5,1.9,1,2.8,1.6c6.9,5.3,14.4,9.5,22.6,12.5c0.1,0,0.2,0.1,0.3,0.1
		c0.1,0.1,0.1,0.2,0.2,0.2c-0.5,0.3-0.9,0.8-1.1,1.3c-0.1,0.3-0.2,0.6-0.3,0.9c-0.9-1.6-2.9-1.3-3.9-0.2c-1.1,0.1-2.1,0.9-1.9,2.3
		c0,0.2,0.1,0.4,0.1,0.7c0,0,0,0,0,0c0,0,0,0,0,0.1c1.3,9.3,4.1,17.9,8.8,26.1c0.8,1.4,2.6,1.5,3.7,0.7c0.8,0.1,1.8-0.2,2.5-0.8
		c0.5,0.9,1,1.9,1.6,2.8c3.4,5.4,8.7,9.6,13.9,13.6c-0.8,0.6-1.2,1.6-0.8,2.7c0,0,0,0.1,0,0.1c-0.3,0.2-0.6,0.5-0.7,0.8
		c-1.8,0.2-2.9,2.2-2,4c0.2,0.5,0.4,0.8,0.6,1.1c-0.8,0.1-1.4,0.8-1.2,1.8c0,0.2,0.1,0.4,0.1,0.5c0,0.1,0,0.2-0.1,0.3
		c-0.8,7.5,0.1,14.8,2.6,21.8c-0.2,2.3-0.5,4.6-0.7,6.9c-0.8,5.7-2,11.2-3.6,16.7c-0.3,0.9,0.2,1.8,0.9,2.3c1.1,0.8,2.3,1.4,3.4,2.1
		c-0.2,1.3-0.4,2.6-0.6,3.8c-0.3,2.3,3.5,3.3,4.5,1.2c0-0.1,0.1-0.2,0.1-0.3c2.3,2.9,6.7,3,10.3,3.5c3.3,0.4,6.5,0.5,9.8,0.3
		c0.2,1.3,1.3,2.5,3.1,2.1c3.2-0.8,6.3-1.7,9.4-2.8c0.5,0.7,1.4,1.1,2.6,0.9c5.6-1.3,11.2-2.9,15.6-6c0.7,0.4,1.5,0.4,2.4-0.1
		c4.8-2.6,8-6.7,9.3-12c0.5-1.8-1.3-3.8-3.2-3.2c-1.7,0.6-3.1-21.5-3-23.7c0.2-8.4,1.4-16.7,2.7-25c0-0.2,0-0.4,0-0.6
		c0.7-0.5,1-1.2,1.1-1.8c12.6-6.8,25.5-13.7,37-22.3c0.6,0.5,1.4,0.8,2.4,0.5c8.6-2.8,15-8.9,18.2-17.3c0.3-0.7,0.2-1.3,0-1.8
		c4.4-5.4,8.6-11.1,12.3-17C279.9,146.6,277.8,144.3,275.6,144.8z M192.4,259.4c0.1-0.3,0.2-0.6,0.4-0.9c0.1,0.1,0.2,0.3,0.3,0.4
		C192.9,259,192.6,259.2,192.4,259.4z M160.4,218.6c-0.1-0.3-0.2-0.5-0.3-0.7c0.1,0,0.3,0.1,0.4,0.1
		C160.4,218.2,160.4,218.4,160.4,218.6z M197.1,177.9C197,177.9,197,177.9,197.1,177.9C197,177.9,197,177.9,197.1,177.9
		C197.1,177.9,197.1,177.9,197.1,177.9z M158.8,200.2c0,0,0-0.1,0-0.1c0.1,0.1,0.2,0.1,0.2,0.2C159,200.2,158.9,200.2,158.8,200.2z
		 M208,194.9c0.5-0.2,1-0.3,1.5-0.5c-0.4,0.3-0.8,0.5-1.2,0.8C208.2,195.1,208.1,195,208,194.9z M255,156.1
		C255,156.1,255,156.1,255,156.1c-0.1,0-0.1-0.1-0.2-0.1c0.1,0,0.2-0.1,0.3-0.1C255.1,155.9,255.1,156,255,156.1z M158.5,270.2
		c0,0.4,0,0.7,0,1.1c-0.2,0-0.3-0.1-0.5-0.1C158.2,270.8,158.4,270.5,158.5,270.2z M264.4,138.9c0-0.1,0-0.3-0.1-0.4
		c0.4-0.5,0.7-1,1.1-1.6c-0.1,0.2-0.2,0.4-0.3,0.7C264.9,138.1,264.6,138.5,264.4,138.9z M161.1,189.1c0,0-0.1-0.1-0.1-0.1
		c0,0,0.1-0.1,0.1-0.1C161.1,188.9,161.1,189,161.1,189.1z"/>
	<path fill="#FFFFFF" d="M164.2,96.8c-0.5-0.8-1.4-1.2-2.3-0.9c-4.3,1.5-8.6,3.1-12.7,5.1c-2,0.9-3.9,2-5.8,3.1
		c-0.8,0.3-1.6,0.6-2.4,0.9c1-1.7,2.1-3.5,3.1-5.2c1.1-2-1.7-3.5-3-1.7c-6.3,8.7-12.4,18.3-17,28c-0.5,1.1,0.9,2.5,1.8,1.4
		c4.1-5.2,7.9-10.8,11.6-16.6c0.8-0.2,1.6-0.5,2.4-0.8c0.3,0.1,0.6,0,0.8-0.2c0.1,0,0.1-0.1,0.2-0.1c2.7-0.6,5.5-2,7.8-3
		c3.9-1.6,7.8-3.4,11.6-5.1c0,0.1,0,0.2,0,0.3c-0.1,2.7,3.7,2.5,4,0c0.2-1.2,0.3-2.4,0.5-3.6C164.9,97.6,164.6,97.1,164.2,96.8z"/>
	<path fill="#FFFFFF" d="M191,96.3c-4.3-13.2-10.8-25.5-20.3-35.7c0-0.1,0.1-0.2,0.1-0.3c0.8-1.3-1.1-2.9-2.1-1.6
		c-3.7,4.6-5.8,9.9-7.9,15.4c-2.5,6.5-4.4,13.2-4,20.2c0.2,2.6,4.3,2.7,4.1,0c-0.4-10,3.4-21.6,8.2-30.8c7.2,10.8,13.6,21.6,17.7,34
		C187.7,100.1,191.8,98.9,191,96.3z"/>
	<path fill="#FFFFFF" d="M130.3,130.4c-8.8-2.9-17.9-4.4-27.2-4.6c-4.4-0.1-8.8,0.3-13.2,0.9c-3.8,0.5-9.1,0.9-12,3.6
		c-0.6,0.5-0.3,1.6,0.5,1.8c0.3,0.1,0.6,0.1,1,0.1c6.8,15.7,23,26.7,39.1,30.9c2.7,0.7,3.9-3.5,1.2-4.2c-16.2-4-27.6-13.9-37.3-26.8
		c1.7-0.3,3.4-0.7,5.1-1c4.6-0.8,9.2-1.1,13.9-1.1c9.5-0.1,18.9,1.6,27.8,4.7C131.8,135.5,133,131.3,130.3,130.4z"/>
	<g>
		<path fill="#FFFFFF" d="M182.3,99.7c4.9,5.3,11.8,9,18,12.4c6.4,3.6,13.2,6.6,20.1,9.2c2.7,1,3.7-3.2,1.2-4.2
			c-6.5-2.5-12.9-5.3-19.2-8.5c-6.4-3.3-12.2-7.7-18.7-10.6C182.5,97.4,181.4,98.7,182.3,99.7L182.3,99.7z"/>
	</g>
	<g>
		<path fill="#FFFFFF" d="M216.6,125.4c12.9-0.5,25.5-5,36.9-11c2.3-1.2,0.3-4.8-2.1-3.5c-11.2,6-22.8,9.2-35.1,11.9
			C214.7,123.1,215.1,125.5,216.6,125.4L216.6,125.4z"/>
	</g>
	<path fill="#C6C6C5" d="M214.6,118c-5.2-2.4-10.4-3.8-16.1-4.3c-0.3-1.3-1.6-2.3-3.1-1.4c-9.4,5.7-18.5,12.3-24.8,21.2
		c-0.4,0.4-0.7,0.8-1,1.1c-0.5-0.1-1,0.1-1.4,0.6c-0.6,0.7-0.7,1-0.9,1.5c-2.9,1.9-5.7,3.9-8.4,6.1c0,0,0,0,0,0
		c-0.5,0.4-0.9,0.7-1.4,1.1c-2.5,2.1,1.1,5.6,3.6,3.6c0.5-0.4,1-0.8,1.6-1.3c0.5,0.1,1.1,0,1.7-0.3c0.8-0.5,1.6-1,2.3-1.5
		c0.9,0.6,2.2,0.8,2.9-0.2c0.9-1.1,1.8-2.2,2.7-3.3c-0.4,0.7-0.8,1.3-1.2,2c-1.2,2.2,1.7,4.6,3.5,2.7c0,0,0.1-0.1,0.1-0.1
		c0.4,0,0.8-0.1,1.2-0.3c0.1-0.1,0.2-0.1,0.2-0.2c-0.2,0.3-0.4,0.7-0.6,1c-1.3,2.2,1.9,4.8,3.6,2.8c5.8-6.7,11.7-13.6,18.7-19.1
		c4.2-2.7,8.5-5.1,13.2-6.7c0.2-0.1,0.4-0.1,0.5-0.2c0.6-0.1,1.2-0.2,1.8-0.2C215.5,122.4,217,119.1,214.6,118z"/>
	<g>
		<path fill="#BFBFBF" d="M126.9,258c-0.8,2.6-1.5,5.3-2.4,7.9c1,0.1,2,0.3,3,0.4c0.4-4,2.1-7.3,5.1-9.9c-0.9-0.7-1.8-1.4-2.7-2.1
			c-2.2,3.3-3.5,6.9-4.1,10.9c-0.3,2.2,2.8,3.2,3.4,0.9c1-3.5,2-7,4-10.1c1.6-2.6,4-3.8,4.3-7.1c0.1-1.5-2.2-2.5-3.1-1.3
			c-4,5.1-7.3,11.4-7.8,18c-0.1,2,2.9,2.3,3.4,0.5c1.5-5.8,3.1-11,6.9-15.9c-1-0.4-2.1-0.9-3.1-1.3c-0.1,1.5-1.9,2.9-2.8,4
			c-0.8,1-1.5,2.1-2.1,3.2c-1.5,2.8-2.3,6-3.2,9.1c1.2,0.2,2.3,0.3,3.5,0.5c0.4-3.5,1.7-6.7,3.5-9.6c1.1-1.7-1.3-3.3-2.7-2.1
			c-3.6,3.2-5.6,7.5-5.7,12.3c0,2,2.8,1.9,3.1,0c0.3-2.6,1-5.1,1.6-7.7C129.5,257.2,127.3,256.6,126.9,258L126.9,258z"/>
	</g>
	<g>
		<path fill="#BFBFBF" d="M129.4,261.9c-0.3,3.7,0.1,7,1.4,10.5c0.7,1.9,3.5,1.2,3-0.8c-1-3.8-1.6-7.6-1.7-11.6c-1.1,0-2.3,0-3.4,0
			c0.2,4.2,1,8.2,2.3,12.2c0.6,1.8,3.6,1.6,3.5-0.5c-0.2-3.9-0.4-7.8-0.6-11.7c-1.2,0.2-2.3,0.3-3.5,0.5c0.7,2.5,1.2,4.9,1.4,7.5
			c1.2,0,2.4,0,3.6,0c-0.5-3.9-0.8-7.8-0.9-11.7c-0.1-2.4-3.6-2.4-3.7,0c-0.2,7,1.3,13.6,4.3,20c0.9,2,4.5,0.6,3.6-1.5
			c-0.7-1.8-1.5-3.6-2.2-5.4c-1.1,0.7-2.3,1.3-3.4,2c4.6,5.7,10.2,10.2,16.7,13.8c2,1.1,4.4-1.7,2.5-3.3c-2.5-2.2-5-4.5-7.5-6.7
			c-1,1-2,2-3.1,3.1c9.5,7.4,20.7,11.3,32.7,11.1c2.6,0,3-3.7,0.6-4.4c-6.2-1.9-12.5-3.8-18.7-5.7c-2.8-0.9-4,3.5-1.2,4.4
			c17.3,5.6,35.7,5.4,52.9-0.5c2.8-1,1.6-4.8-1.2-4.4c-6.6,0.9-13.1,1.8-19.7,2.8c0.4,1.5,0.8,2.9,1.2,4.4c2.4-0.7,4.8-1.4,7.2-2.1
			c2.8-0.8,1.6-4.9-1.2-4.4c-4.6,0.9-9.3,1.8-13.9,2.7c-2.9,0.6-1.6,4.9,1.2,4.4c13.8-2.6,37.9-9.3,40.1-26.1
			c0.3-1.9-2.2-4.2-3.8-2.2c-2.2,2.8-4.5,5.5-6.7,8.3c1.2,0.9,2.4,1.8,3.6,2.8c4.7-7.3,8.3-15.7,3.9-24c-1-1.8-3.7-1.3-4.2,0.5
			c-0.9,3.2-0.8,6,0.3,9c1.1,2.8,4.8,1.7,4.4-1.2c-0.3-2.3-0.7-4.6-1-6.9c-1.4,0.6-2.8,1.2-4.2,1.8c2.4,5.2,5.7,9.7,10,13.5
			c1.6,1.4,4.6,0.1,3.8-2.2c-1.2-3.7-3-6.7-5.6-9.5c-0.9,1.2-1.9,2.4-2.8,3.6c7.4,4.9,14,10.6,19.9,17.1c2,2.2,5.2-1,3.3-3.3
			c-2.7-3.3-5.5-6.5-8.2-9.8c-1.1,1.1-2.2,2.2-3.3,3.3c8.2,7.8,15.3,15.4,21.8,24.7c1.2,1.7,4.6,1.4,4.4-1.2
			c-0.7-6.1-3.9-10.7-7.6-15.4c-1.8-2.2-4.7,0.6-3.7,2.8c3.7,7.6,8.4,14.4,14.2,20.4c1.6,1.6,4.7,0,3.9-2.3
			c-1.4-4.1-3.3-7.8-5.9-11.4c-1.8-2.4-5.7-0.3-4.1,2.4c8.2,14,12.8,29.4,13.6,45.7c0.1,2,2.8,3.5,4.2,1.8
			c5.2-6.2,2.1-18.2,0.4-25.3c-0.7-3.2-5.4-1.8-4.8,1.3c1,5,1.5,9.7,0.9,14.7c-0.5,3.9-0.5,7.6,1.9,10.9c1.2,1.7,4,1.7,4.6-0.6
			c0.6-2.3,0.2-3.9-1.6-5.5c-2.5-2.1-6,1.5-3.5,3.5c0.1,0.2,0.2,0.4,0.4,0.6c1.5-0.2,3-0.4,4.6-0.6c-2.5-3.3-1.3-7.6-0.9-11.4
			c0.4-4.3-0.6-8.8-1.4-13.1c-1.6,0.4-3.2,0.9-4.8,1.3c0.8,3.4,1.3,6.7,1.6,10.2c0.2,2.7,1.1,8-0.8,10.3c1.4,0.6,2.8,1.2,4.2,1.8
			c-0.8-17-5.8-33.4-14.4-48c-1.4,0.8-2.7,1.6-4.1,2.4c2.3,3.2,4.1,6.5,5.5,10.2c1.3-0.8,2.6-1.5,3.9-2.3
			c-5.6-5.8-10-12.2-13.5-19.5c-1.2,0.9-2.4,1.9-3.7,2.8c2.9,3.6,5.7,7.4,6.3,12.1c1.5-0.4,2.9-0.8,4.4-1.2
			c-6.8-9.6-14.1-17.6-22.6-25.6c-2.2-2.1-5.2,1-3.3,3.3c2.7,3.3,5.5,6.5,8.2,9.8c1.1-1.1,2.2-2.2,3.3-3.3
			c-6.2-6.8-13.2-12.7-20.9-17.8c-2.2-1.5-4.5,1.8-2.8,3.6c2.1,2.2,3.5,4.5,4.4,7.4c1.3-0.7,2.6-1.5,3.8-2.2
			c-4-3.6-7.1-7.7-9.3-12.6c-1.2-2.6-4.5-0.6-4.2,1.8c0.3,2.3,0.7,4.6,1,6.9c1.5-0.4,2.9-0.8,4.4-1.2c-0.9-2.4-1.1-4.1-0.4-6.6
			c-1.4,0.2-2.8,0.4-4.2,0.5c3.6,6.7-0.1,13.6-3.9,19.4c-1.4,2.1,1.9,4.8,3.6,2.8c2.2-2.8,4.5-5.5,6.7-8.3c-1.3-0.5-2.6-1.1-3.9-1.6
			c-1,7.5-8.1,11.8-14.2,14.9c-7.1,3.7-14.9,6-22.7,7.4c0.4,1.5,0.8,2.9,1.2,4.4c4.6-0.9,9.3-1.8,13.9-2.7c-0.4-1.5-0.8-2.9-1.2-4.4
			c-2.4,0.7-4.8,1.4-7.2,2.1c-2.9,0.9-1.6,4.8,1.2,4.4c6.6-0.9,13.1-1.8,19.7-2.8c-0.4-1.5-0.8-2.9-1.2-4.4
			c-16.4,5.7-33.9,5.9-50.4,0.5c-0.4,1.5-0.8,2.9-1.2,4.4c6.2,1.9,12.5,3.8,18.7,5.6c0.2-1.5,0.4-2.9,0.6-4.4
			c-10.8,0.2-21.1-3-29.6-9.7c-2.1-1.7-5.2,1.2-3.1,3.1c2.5,2.2,5.1,4.4,7.6,6.6c0.8-1.1,1.7-2.2,2.5-3.3c-6.2-3.3-11.4-7.6-15.9-13
			c-1.6-1.9-4,0.5-3.2,2.5c0.8,1.8,1.5,3.6,2.3,5.3c1.1-0.7,2.3-1.3,3.4-2c-2.9-5.7-4.2-11.6-4-18c-1.2,0-2.4,0-3.7,0
			c0.1,3.9,0.4,7.8,0.9,11.7c0.3,2.3,3.9,2.3,3.6,0c-0.3-2.9-0.8-5.6-1.6-8.4c-0.5-1.9-3.6-1.6-3.5,0.5c0.2,3.9,0.5,7.8,0.7,11.7
			c1.2-0.2,2.3-0.3,3.5-0.5c-1.2-3.7-2-7.3-2.2-11.2c-0.2-2.2-3.5-2.2-3.4,0c0.2,4.3,0.9,8.4,2.1,12.4c1-0.3,2-0.6,3-0.8
			c-1.3-3.2-1.9-6.3-1.7-9.7C132.2,260.1,129.6,260.2,129.4,261.9L129.4,261.9z"/>
	</g>
	<g>
		<path fill="#BFBFBF" d="M251.2,276.7c0.8-5.8-1.9-11.6-7.1-14.4c-1.4-0.7-3.6,0.5-2.9,2.2c1,2.4,2.3,4.5,4.2,6.3
			c1.4,1.4,4.2,0,3.4-2c-0.4-1.1-0.9-1.6-2-2c-0.8-0.3-1.9,0.2-2.3,0.9c-0.1,0.1-0.1,0.2-0.2,0.3c-0.5,1-0.1,2.3,1,2.6
			c-0.1-0.1-0.2-0.2-0.3-0.3c1.1-0.8,2.1-1.6,3.2-2.5c-1.5-1.4-2.6-3.1-3.4-5c-0.9,0.9-1.8,1.8-2.7,2.7c4.1,2.1,6.8,6,6.9,10.7
			C249,277.7,251.1,278.1,251.2,276.7L251.2,276.7z"/>
	</g>
	<g>
		<path fill="#BFBFBF" d="M131.8,267.2c-0.3,0.2-0.5,0.5-0.8,0.7c-0.5-0.4-1.1-0.8-1.6-1.2c1,2.5,2.5,4.8,3.9,7.1
			c0.9,1.7,3.8,1,3.7-1c-0.1-1.9-0.3-3.8-0.4-5.7c-1.1,0.5-2.3,1-3.4,1.4c0.8,0.6,1.3,1.9,1.6,2.9c0-0.4,0-0.7,0-1.1
			c0,0.1,0,0.2-0.1,0.2c0.5-0.5,0.9-0.9,1.4-1.4c0,0-0.1,0-0.1,0c0.4,0,0.7,0,1.1,0c0,0-0.1,0-0.1,0c0.4,0.3,0.8,0.6,1.2,0.9
			c0,0,0,0,0-0.1c-0.4-0.8-1.3-1-2.1-0.8c0,0-0.1,0-0.1,0c-1,0.2-1.6,1.5-1.3,2.4c0,0,0,0.1,0,0.1c0.3,0.8,1,1.5,1.9,1.5
			c0,0,0.1,0,0.1,0c0.9,0,1.6-0.6,1.9-1.5c0.4-1.2-0.3-2.3-0.8-3.4c-0.5-1-0.9-1.9-1.8-2.6c-1.2-0.9-3.6-0.5-3.4,1.4
			c0.2,1.9,0.3,3.8,0.5,5.7c1.2-0.3,2.5-0.7,3.7-1c-1.5-2.2-2.8-4.7-4.6-6.7c-0.5-0.5-1.4-0.6-2-0.3c-1,0.6-1.4,1.6-1.1,2.7
			C129.5,269.2,131.7,268.8,131.8,267.2L131.8,267.2z"/>
	</g>
	<g>
		<path fill="#ABABAB" d="M126,272.8c1.5-1,2.4-2.4,2.4-4.3c0-2.1-1.6-4.7-3.8-5c-1.1-0.2-2.1-0.3-3.2,0c-0.9,0.3-1.8,0.7-2.6,1.1
			c-1.1,0.6-2.1,1.4-3.2,2c2.4,2.4,4.7,4.7,7.1,7.1c0.8-1.2,1.5-2.4,2.3-3.6c1.6-2.6,0.6-6.2-2-7.7c-2.7-1.6-6-0.5-7.7,2
			c-0.4,0.7-0.9,1.3-1.3,2c3.4,2,6.7,3.9,10.1,5.9c-0.4,0.5-0.8,0.9-1.3,1.2c0.5-0.3,1-0.7,1.4-1.1c3.4-3.5,1.1-10-4.1-9.9
			c-3.3,0.1-5.7,2.2-6.7,5.3c-0.8,2.5,0.5,5.3,2.7,6.6c2.5,1.5,6.7,0.8,8-2.1c0.5-1.2,1-2.4,1.5-3.6c-3.6-1-7.2-2-10.8-3
			c-0.5,1.3-1,2.6-1.5,4c-0.7,2.2,0.4,4.7,2.4,5.9c1.9,1.1,4.8,0.9,6.3-0.8c0.6-0.7,1.4-1.4,2.1-2.1c0.3-0.3,0.6-0.6,0.9-0.8
			c-0.7,0.6-3.5,0-2.1,0.6c-0.6-0.4-1.3-0.7-1.9-1.1c-0.3-1-0.5-2.1-0.8-3.1C118.9,271.5,123.2,274.7,126,272.8L126,272.8z"/>
	</g>
	<path fill="#ABABAB" d="M269.7,324c0.1-2.2-0.7-4.4-2.3-6.1c0-3.6-0.3-7.1-1.1-10.8c-1.3-5.7-4.9-10.6-6.4-16.2
		c-0.1-0.5-0.2-0.9-0.3-1.4c-0.8-3.6-3.4-5.3-6.1-5.5c-0.8-0.9-1.7-1.8-2.6-2.6c-1.8-1.8-3.8-3.5-5.3-5.6c-1.8-2.4-2.6-5.3-4.5-7.6
		c-1.5-1.8-3.2-3-5.1-3.7c-0.6-1.9-1.7-3.6-3.4-5.2c-2.9-2.7-7.3-2.8-10.1,0c-6.1,6-12.2,12-18.3,18.1c-1.6,1.6-2.2,3.6-2,5.6
		c-4.1,0.2-8.1,0.3-12.2,0.4c-14,0.5-28.1,0.5-42-1.7c-3.3-1.6-6.5-3.3-9.5-5.3c-3.7-2.4-6-6.2-8.3-9.8c-0.4-0.6-0.8-1.1-1.3-1.5
		c0.6-0.6,1.1-1.2,1.7-1.8c1.2-1.3,0.5-4.2-1.6-3.9c-0.5,0.1-1,0.2-1.5,0.3c2.4-1.5,4.5-3.3,6.3-5.7c1.1-1.4-0.9-3.1-2.3-2.3
		c-3.4,2-6.7,4.2-9.8,6.6c-1.5,0.9-2.9,1.8-4.4,2.8c-0.5,0.3-0.7,0.9-0.7,1.4c-7.5,6.8-13.8,14.8-18.8,23.8
		c-3.9,7.2-6.7,14.9-8.6,22.9c-1.9,8.3-3.2,17.8-0.4,26c0.6,1.6,2.4,2.1,3.7,1c0.1-0.1,0.2-0.2,0.3-0.3c0.7,0.5,1.3,1,2,1.4
		c2,2.2,4.1,4.1,6.4,5.9c1,0.9,2,1.7,3.3,2.3c1.1,0.5,2.2,0,2.7-0.8c10.4,5.2,21.6,8.5,33.4,9.7c0.8,0.1,1.4-0.2,1.7-0.7
		c4.3,1,8.6,1.7,12.9,2.2c8,4.8,18.9,2.8,27.6,1.6c0.2,0,0.3,0,0.5-0.1c1.5,0,2.9,0.1,4.4,0.2c0.8,0,1.3-0.2,1.7-0.6
		c6.5,1.9,15.4-1.1,21.6-2.4c8.6-1.9,17.1-4.6,25.3-7.8c2.4-0.5,4.8-1,7.2-1.8c2.6-0.4,5.1-1.3,7.5-2.7c0.4-0.3,0.7-0.6,0.9-1
		c0.8-0.3,1.6-0.6,2.4-0.9c0.6-0.2,1.1-0.5,1.6-0.8c2.4-0.9,4.7-2,6.8-3.5c0.6-0.4,0.9-0.8,1.1-1.3c1.3-0.5,2.5-0.9,3.8-1.3
		c2.9-0.9,6.5-1.8,6.5-5.5C273.8,324.4,272,323.6,269.7,324z M118,269.4c0,0.1,0,0.3,0,0.5c0,0,0,0,0,0.1c0-0.1-0.1-0.2-0.1-0.4
		C117.9,269.5,117.9,269.5,118,269.4z"/>
	<path fill="#898989" d="M225.8,252.7c-1.1-3-3.5-5.2-6.9-5.2c-3.5,0-7.6,3.3-7.1,7.1c2.1,18.3-17.7,25.1-32.5,25.4
		c-14.5,0.4-34.1-1-42.6-14.4c-0.3-0.6-0.6-1.2-0.9-1.7c-1-2.3-1.7-4.7-2.2-7.3c-1.3-7.2-11.9-5.1-12.2,1.7
		c-0.2,3.9-0.3,7.8-0.2,11.7c-0.2,1.3,0.1,2.4,0.6,3.3c2.1,13.8,8.1,26.5,18.9,35.8c11.4,9.9,26.4,13.7,41.2,11.6
		c14.3-2,28.9-12.1,37.5-23.5C229,284.5,231.4,267.5,225.8,252.7z"/>
	<g>
		<path fill="#FFFFFF" d="M132.6,252.7c-30.2,13.9-47.1,51-44.3,83c0.2,2.8,4.7,2.8,4.4,0c-1.4-16,1.9-31.8,9.1-46.1
			c7.3-14.5,18.8-25.6,32-34.9C134.9,253.8,133.9,252.1,132.6,252.7L132.6,252.7z"/>
	</g>
	<g>
		<path fill="#FFFFFF" d="M213.7,250.5c3,2.3,6.8,3.7,10.1,5.6c3.7,2.1,7.2,4.5,10.5,7.1c6.9,5.4,13,12,18.2,19.1
			c10.5,14.3,15.4,30,17.8,47.3c0.4,2.6,4.5,1.9,4.5-0.6c0-17.9-8.8-36.2-19.2-50.2c-5.3-7.1-11.6-13.6-18.6-19
			c-6.3-4.8-14.4-10.9-22.5-11.8C212.9,247.7,212.7,249.7,213.7,250.5L213.7,250.5z"/>
	</g>
	<g>
		<path fill="#FFFFFF" d="M265.5,119.6c1.5,3.8,3.4,7.4,5.2,11.1c1.3,2.6-2.6,7.9-3.7,10.4c-2.2,5.3,4.7,7.1,8.3,7.2
			c5.6,0.1-0.7,3.6-2.1,5.1c-2,2-3.2,4.7-4.4,7.2c-3.3,7-7,12.4-13.9,16.3c-2.4,1.4-0.3,5.1,2.2,3.7c6.5-3.5,11.2-8.8,14.3-15.4
			c1.6-3.5,3-7,5.7-9.8c2.1-2.2,4.6-2.3,5.7-5.4c0.7-2.1-1.3-3.9-2.7-4.9c-3-2.2-11.1,0.7-7.5-7.1c1.2-2.6,2.6-4.7,1.8-7.6
			c-0.9-3.9-4.7-8.5-6.9-11.7C266.9,117.7,265,118.3,265.5,119.6L265.5,119.6z"/>
	</g>
	<path fill="#FFFFFF" d="M147.3,209.7c-5.9-4.8-11.1-10.2-15.7-16.3c-0.8-1.1-2.1-1.3-3.2-0.4c-0.6,0.5-1.1,1-1.7,1.4
		c-2.3-5.4-4.7-10.9-7.1-16.3c-1.1-2.4-2.1-7.1-4.2-8.9c-0.5-0.4-1.5-0.4-1.7,0.4c-0.4,2.1,0.7,4.4,1.3,6.4c2.3,7.6,5.9,15,8.9,22.2
		c0.6,1.5,2.2,2,3.4,0.9c0.7-0.6,1.4-1.2,2.1-1.8c4.4,5.6,9.3,10.7,14.9,15.3C146.5,214.3,149.4,211.4,147.3,209.7z"/>
	<path fill="#FFFFFF" d="M144.6,232.4c-0.3-5-1.1-9.9-2.1-14.8c-0.5-2.5-0.5-6.9-2.8-8.6c-0.8-0.5-1.9,0-2.1,0.9
		c0,0.1,0,0.2-0.1,0.3c-0.1,0.5,0.1,1.1,0.6,1.4c0.1,0,0.2,0.1,0.2,0.1c0.1,0.1,0.2,0.1,0.3,0.1c-0.6,0.9,1.7,20,1.8,22.4
		c0.3,5.8-0.1,11.7-1.1,17.4c-1.2-0.6-3-0.2-3.2,1.4c0,0.2,0,0.4-0.1,0.6c0,0,0,0,0,0c0,0.1,0,0.3,0,0.4c0,0.2,0,0.4,0,0.7
		c-0.2,3.4-0.2,6.7,0.2,10c0.4,2.8,4.5,3,4.5,0c0-0.4,0-0.9,0-1.3c0-0.3,0-0.6-0.1-0.8c0.4-0.3,0.8-0.7,1-1.2
		C144.6,251.8,145.2,242.2,144.6,232.4z"/>
	<path fill="#FFFFFF" d="M209.1,250.3c-1-4.3-0.9-9.1-1-13.3c-0.2-8.7,1.3-17.3,1.2-25.9c0-1.4-1.9-1.6-2.3-0.3
		c-3,8.7-3,18.9-3,28.1c0,6.9,0.1,15,4.3,20.8c1.4,1.9,3.9,1.1,4.2-1.1c0.3-2.3,0.4-4.6,0.6-6.9
		C213.4,249.1,210.4,248.7,209.1,250.3z"/>
</g>
<g id="Layer_12">
	<path fill="#1D1B1B" d="M165.3,93.8c-6.8,2-13.4,4.4-19.9,7.4c0.2-3,0.4-5.9,0.6-8.9c0.1-1.7-2.2-2.6-3.3-1.4
		c-9.5,10.5-17.8,23.1-21.7,36.8c-0.4,1.5,1.9,2.6,2.6,1.1c5.1-11.1,10.6-21.5,18.2-30.9c-0.1,2.2-0.3,4.3-0.5,6.5
		c-0.1,1.6,1.7,2.3,3,1.7c6.1-3,12.4-5.6,19-7.5c-0.2,0.8-0.3,1.6-0.5,2.5c-0.5,2.7,3.7,3.8,4.1,1.1c0.3-2,0.6-3.9,0.9-5.9
		C168,94.8,166.9,93.3,165.3,93.8z"/>
	<path fill="#1D1B1B" d="M132.4,127.5c-17.8-4.4-38.4-7.7-55.6,0.5c-0.5,0.2-0.7,0.7-0.6,1.1c0,0.2,0,0.4,0,0.6
		c6,19,25.6,35.3,45.5,36.5c3.3,0.2,3.3-4.9,0-5.1c-9.5-0.7-17.9-4.5-25.4-10.4c-7.2-5.8-12-13.3-17.3-20.7
		c17.7-3.9,34.6-2.6,52.1,2.1C134,132.8,135.3,128.3,132.4,127.5z"/>
	<path fill="#1D1B1B" d="M188,79c-4.3-8-10.7-15.9-17.3-22.2c-0.1-0.1-0.2-0.2-0.4-0.3c0,0-0.1-0.1-0.1-0.1c-1-0.9-2.2-0.2-2.4,0.8
		c-9.1,11.2-15.6,24.9-14.7,39.7c0.2,2.7,3.9,2.7,4.2,0c0.6-6.7,1.1-13.1,3.1-19.6c1.9-6.2,5.8-11.6,9.3-17.1
		c9.4,11.7,18.2,23.3,19.4,38.8c0.2,2.2,3.8,3.1,4.2,0.6C194.6,92.6,191.3,85.1,188,79z"/>
	<path fill="#1D1B1B" d="M145.3,212.4c-5.6-4.4-10-9.6-13.3-15.9c-0.6-1.1-2.5-1.4-3.3-0.4c-1,1.2-1.9,2.5-2.6,3.8
		c-6.4-10.9-9.3-22.8-10.5-35.4c-0.1-1.6-2.4-1.6-2.5,0c-0.6,14.4,4.2,28.7,11.6,40.9c0.9,1.6,3.1,1.2,3.7-0.5
		c0.4-1.3,0.9-2.4,1.5-3.4c3.2,5.4,7.2,10.1,12.2,14.1C144.4,217.3,147.5,214.2,145.3,212.4z"/>
	<g>
		<path fill="#1D1B1B" d="M133,205.5c3,15.2,3.9,29.9,3.5,45.3c-0.1,2.9,4.2,2.8,4.4,0c1.3-15.2-0.8-31.5-5.5-46
			C135,203.3,132.7,203.9,133,205.5L133,205.5z"/>
	</g>
	<g>
		<path fill="#1D1B1B" d="M183.3,97.3c6,5.5,13.9,9.5,21.1,13.2c7.3,3.8,15.1,7.5,23.1,9.8c3,0.9,4.1-3.5,1.3-4.6
			c-7.5-2.8-14.9-5.5-22.1-9c-7.4-3.5-14.2-8.2-21.7-11.5C183.6,94.5,182.1,96.1,183.3,97.3L183.3,97.3z"/>
	</g>
	<path fill="#1D1B1B" d="M266.3,97.9c-1.4,0-2.8,0.4-4.1,1.1c-0.1,0-0.1,0-0.2,0c-6.2,2.4-10.3,11.3-7.4,17.4
		c1.4,2.9,5.5,4.1,8.4,3.6c3.8-0.7,6.6-3.1,8.6-6.4C275.5,107.6,274.8,98.2,266.3,97.9z"/>
	<path fill="#1D1B1B" d="M284.6,143.9c-1-1-2-1.8-3.5-2c-0.6-0.1-8.3,0.8-7.3-0.9c2-3.3,5.7-7.2,4.4-11.3c-0.6-1.8-2.8-3.4-3.8-4.9
		c-1.9-3-2.6-6.9-3.9-10.2c-1.3-3.3-3.9-6.9-7.5-8c-5.1-1.5-8.8,1.3-13.3,3.3c-11.6,5.3-24.1,9.1-36.6,11.3
		c-1.4,0.2-1.1,2.7,0.3,2.5c10.7-1.3,21.1-3.5,31.3-7.3c1.8-0.7,3.6-1.4,5.4-2.2c2.9-1.2,6.5-3.7,9.6-4c6.9-0.7,8,11,10.2,15.3
		c0.9,1.7,1.8,3,3,4.5c2.1,2.4-0.6,4.9-2,7.3c-2,3.4-3.6,5.9-0.3,8.9c3.6,3.2,9.6-2.9,11.4,2.6c1.2,3.7-4.5,4.5-6.5,5.8
		c-1.5,0.9-2.5,2.4-3.4,3.9c-2.5,3.8-2.7,8.7-5,12.6c-2.9,4.9-11,7.9-15.7,10.6c-10.2,5.8-21,10.5-31,16.6c-0.4,0.2-0.7,0.5-1.1,0.7
		c-0.2,0.1-0.3,0.2-0.5,0.3c0,0,0,0-0.1,0.1c-1.1,0.8-2.2,1.8-3.1,2.8c-4,3.3-8.4,6.1-13.2,8.4c-1.4,0.7-0.4,3.1,1.1,2.6
		c2.5-0.9,4.8-2.1,7.1-3.3c-1,2.1-1.7,4.3-2.3,6.6c-2.7,10.9-3.1,23.7-2.1,34.8c0.3,2.9,4.8,2.9,4.5,0c-1-11.6-0.6-25.1,2.6-36.3
		c3.5-12.1,15.3-16.1,25.5-21.3c5.5-2.8,10.9-5.9,16.3-9c5-2.8,10.4-5.4,14.4-9.6c3.4-3.5,3.8-8.8,5.6-13.1c2.2-5.1,7.8-4,10.5-8.4
		C287.3,150.8,286.6,146,284.6,143.9z"/>
	<g>
		<path fill="#1D1B1B" d="M188,127.3c-5.8,1.7-11.2,4.5-16.5,7.4c0.7,1.3,1.5,2.6,2.2,3.8c5.3-3.2,10.8-5.8,16.8-7.5
			c-0.7-1.3-1.5-2.6-2.2-3.8c-4,4.8-9.4,10.3-11.1,16.4c-0.8,2.9,3.3,3.8,4.4,1.2c2.2-5.2,6.4-10,10-14.3c1.4-1.7,0.1-4.5-2.2-3.8
			c-6.3,1.8-12.3,4.5-17.8,8.1c-2.4,1.6-0.2,5.4,2.2,3.8c5-3.1,10.3-5.5,15.6-7.9C191.3,129.7,189.9,126.7,188,127.3L188,127.3z"/>
	</g>
	<g>
		<path fill="#1D1B1B" d="M200.8,111c-3.2,3.3-5.3,7.7-7.3,11.8c-0.9,1.8,0.9,3.8,2.8,2.8c4.5-2.4,9.1-4.9,14-6.5
			c3.1-1,1.3-5.5-1.8-4.2c-4.9,2.1-9.8,4.2-14.4,7.1c1,0.8,2,1.5,3,2.3c1.5-4.2,3.9-7.7,5.9-11.7C203.8,111.4,202,109.8,200.8,111
			L200.8,111z"/>
	</g>
	<g>
		<path fill="#1D1B1B" d="M137.3,243.2c-14.6,10.1-29.2,22.4-39.7,36.8c-10.7,14.8-13.6,36.5-13.1,54.4c0.1,2.9,4.3,2.9,4.5,0
			c1-17.9,2.2-36.8,12.6-52.1c9.7-14.3,24.7-25.5,37.4-36.9C140.2,244.4,138.6,242.3,137.3,243.2L137.3,243.2z"/>
	</g>
	<g>
		<path fill="#1D1B1B" d="M209.6,243.1c6.8,5.1,14.5,9.1,21.6,13.9c7.7,5.2,15,11.1,21.4,17.9c6.5,6.9,11.5,15,15,23.7
			c3.7,9.2,4.7,18.6,6.6,28.2c0.5,2.7,4.8,2.1,4.8-0.6c-0.3-19.3-9-39.4-21.7-53.7c-6.1-6.9-13.5-12.5-21.1-17.6
			c-8-5.4-16.6-10.6-25.5-14.2C209.1,240,208.5,242.3,209.6,243.1L209.6,243.1z"/>
	</g>
	<g>
		<path fill="#1D1B1B" d="M275.9,25.4c-24.5-12.6-50.6-22-78.1-24.7C173.9-1.6,150,2,127.2,9c-23.9,7.4-47,17.7-66.9,33.1
			c-18.2,14.1-33,32.5-43.6,52.9c-9.6,18.7-14.6,38.7-16,59.6c-1.6,23.4-0.5,47.1,4.2,70.2c8.9,43.8,33.3,82.1,70.7,106.9
			c43.2,28.6,96.6,37.2,146.6,24.3c37.2-9.6,73.1-30.4,99.5-58.4c14.8-15.7,25.6-35.7,34.4-55.2c9.2-20.5,15-42.3,15.7-64.8
			c0.7-20.2-2.6-41.5-9.8-60.4c-9-23.7-25.1-44.2-43.5-61.4c-12.8-12-27.2-22.3-42.4-31.1c-3-1.7-5.6,2.9-2.7,4.6
			c23.6,13.6,44.9,31.1,61.9,52.5c15.4,19.4,24.9,41.5,29,65.9c8.2,48.7-9.8,95.3-37.3,135c-8.6,12.4-20.4,22.8-32.3,31.8
			c-16.6,12.6-35,22.8-54.5,30.2c-22.4,8.5-46.3,12.8-70.3,12.1c-28.3-0.7-55.9-9.2-80.6-22.8c-41.2-22.6-68.3-61.2-78.8-106.6
			c-5.4-23.3-6.4-47.5-5-71.3c1.3-22,6.8-42.6,17.3-62.1c10.4-19.4,25.3-36.4,42.8-49.8c19-14.5,41.5-23.9,64.2-30.9
			c21.5-6.7,43.9-9.7,66.4-7.9C223.4,7.6,249.6,17,274,28.7C276.1,29.8,278.1,26.6,275.9,25.4L275.9,25.4z"/>
	</g>
	<path fill="#FFFFFF" d="M271.2,106.9c-0.5-2.9-1.8-6.4-5.4-5.8c-3.3,0.6-5.9,2.2-7.5,5.2c0,0,0,0.1,0,0.1c-0.3,0.6-0.5,1.3-0.5,2.1
		c-0.1,1.4,1.9,1.8,2.5,0.7c1.2-2,7.7-6.2,8.4-1.7C269,109.3,271.5,108.6,271.2,106.9z"/>
	<path fill="#1D1B1B" d="M214.3,242.5c-1.3-0.7-2.5-0.1-3,1c-1.9-0.9-4.1,1.8-2.4,3.6c7.3,7.9,1.8,18.7-5.7,24
		c-7.6,5.4-17.9,7.2-27,7.7c-16.4,0.9-48.9-7.9-37-31c0.8-1.5-1.4-2.7-2.2-1.3c-0.1,0.2-0.2,0.4-0.3,0.5c-0.5-0.2-1.1-0.3-1.6,0.2
		c-6,4.8-8.5,12.6-7.1,20.1c1.6,8.8,7.5,15.6,14.9,20.3c15.5,9.7,38.1,8.9,54.7,2.5c11.1-4.3,21.2-12.5,25.1-23.9
		C225.7,257.3,222.8,247.2,214.3,242.5z M218.5,264.3c-2.6,9.5-11.1,16.3-19.5,20.4c-13.7,6.7-31.3,7.3-45.8,2.9
		c-14.6-4.4-27.9-20.9-18.9-35.1c-2,7.6,0.6,15.6,6.9,21.2c9.5,8.3,24.6,9.9,36.6,9.3c11.5-0.6,24-4.1,32.4-12.2
		c5.9-5.7,8-14.8,4.8-22.2C219.1,252.7,220.2,258.3,218.5,264.3z"/>
</g>
</svg>
